<svg xmlns="http://www.w3.org/2000/svg" viewBox="0 0 64 64" id="food-delivery"><polygon fill="#64c1f7" points="58 52 61 61 9 61 12 52 8.94 22 61 22 58 52"></polygon><rect width="6" height="14" x="9" y="40" fill="#ec455a"></rect><rect width="6" height="12" x="3" y="41" fill="#9e2849"></rect><path fill="#f09898" d="M49,46a2.006,2.006,0,0,1-2,2H44a2.006,2.006,0,0,1,2,2,2.015,2.015,0,0,1-2,2H41a2.015,2.015,0,0,1,2,2,2.006,2.006,0,0,1-2,2H27l-3-3H15V41h8l4-5h8l3,4h7a2.006,2.006,0,0,1,2,2,2.015,2.015,0,0,1-2,2h2a2.015,2.015,0,0,1,2,2Z"></path><path fill="#ff9811" d="M16 14a2.006 2.006 0 0 1 2 2 2.015 2.015 0 0 1-2 2H11V17c0-1.06.05-2.06.13-3zM16 7a2.006 2.006 0 0 1 2 2 2.015 2.015 0 0 1-2 2H11.6a15.288 15.288 0 0 1 1.44-4z"></path><path fill="#ffb655" d="M16,18a2.015,2.015,0,0,0,2-2,2.006,2.006,0,0,0-2-2H11.13a23.031,23.031,0,0,1,.47-3H16a2.015,2.015,0,0,0,2-2,2.006,2.006,0,0,0-2-2H13.04C14.5,4.32,16.63,3,19,3a5.879,5.879,0,0,1,2,.34C24.45,4.56,27,9.08,27,17v4H11V18Z"></path><path fill="#ee8700" d="M31,17v4H27V17c0-7.92-2.55-12.44-6-13.66A5.879,5.879,0,0,1,23,3C27.42,3,31,7.61,31,17Z"></path><polygon fill="#009698" points="39 14 39 22 30 22 30 14 34 8 39 14"></polygon><polygon fill="#00ccb3" points="54 8 58 14 39 14 34 8 54 8"></polygon><rect width="19" height="8" x="39" y="14" fill="#00eed1"></rect><rect width="20" height="5" x="34" y="3" fill="#00eed1"></rect><path d="M59.02,51.89,62,22.1a1.036,1.036,0,0,0-.26-.77A1,1,0,0,0,61,21H59V14a.967.967,0,0,0-.17-.55L55,7.7V3a1,1,0,0,0-1-1H34a1,1,0,0,0-1,1V7.7l-1.74,2.6C29.96,5.06,26.97,2,23,2a6.832,6.832,0,0,0-1.98.31A7.079,7.079,0,0,0,19,2c-4.35,0-9,3.94-9,15v4H9a1,1,0,0,0-.74.33A1.036,1.036,0,0,0,8,22.1L9.69,39H9a1,1,0,0,0-1,1H3a1,1,0,0,0-1,1V53a1,1,0,0,0,1,1H8a1,1,0,0,0,1,1h.94L8.05,60.68a1,1,0,0,0,.14.9A.983.983,0,0,0,9,62H61a.983.983,0,0,0,.81-.42,1,1,0,0,0,.14-.9ZM8,52H4V42H8ZM56.13,13H39.47L36.14,9H53.46ZM57,15v6H40V15ZM35,4H53V7H35ZM31,14.3l2-3V13h2V10.76l3,3.6V21H35V15H33v6H31Zm-1.31-1.64-.52.79A.967.967,0,0,0,29,14v7H28V17c0-6.63-1.67-10.68-3.95-12.88C26.9,4.72,28.96,7.81,29.69,12.66ZM13.68,8H16a1,1,0,0,1,1,1,.949.949,0,0,1-.31.71A.928.928,0,0,1,16,10H12.92A13.007,13.007,0,0,1,13.68,8Zm-1.61,7H16a1,1,0,0,1,1,1,.949.949,0,0,1-.31.71A.928.928,0,0,1,16,17H12C12,16.31,12.03,15.65,12.07,15ZM12,19h4a3,3,0,0,0,3-3,3.009,3.009,0,0,0-3-3H12.27c.04-.34.1-.67.16-1H16a3,3,0,0,0,3-3,3.009,3.009,0,0,0-3-3H14.95A5.221,5.221,0,0,1,19,4c4.25,0,7,5.1,7,13v4H12ZM10,41h4V53H10Zm.39,19,1.66-5H15a1,1,0,0,0,1-1h7.59l2.7,2.71A1.033,1.033,0,0,0,27,57H41a2.98,2.98,0,0,0,2.82-4H44a2.98,2.98,0,0,0,2.82-4H47a2.99,2.99,0,0,0,.78-5.88A2.994,2.994,0,0,0,45,39H38.5l-2.7-3.6A1.014,1.014,0,0,0,35,35H27a1,1,0,0,0-.78.38L22.52,40H16a1,1,0,0,0-1-1H11.7L10.1,23H59.9L57,51.9a1.21,1.21,0,0,0,.05.42L59.61,60ZM45,41a1,1,0,0,1,0,2H35v2H47a1,1,0,0,1,0,2H35v2h9a1,1,0,0,1,0,2H35v2h6a1,1,0,0,1,0,2H27.41l-2.7-2.71A1.033,1.033,0,0,0,24,52H16V42h7a1,1,0,0,0,.78-.38L27.48,37H34.5L36,39H33v2Z"></path></svg>